<svg width="111" height="19" viewBox="0 0 111 19" fill="none" xmlns="http://www.w3.org/2000/svg">
<path d="M52.022 1.59124C51.4963 1.67182 51.0047 1.89323 50.6035 2.23015C50.2023 2.56706 49.9076 3.00588 49.7533 3.49644C49.5989 3.98699 49.591 4.50947 49.7305 5.00414C49.8699 5.49882 50.1512 5.94571 50.542 6.29374C50.8134 6.55499 50.8627 6.62624 50.9614 6.79249C51.06 7.02999 51.1094 7.17249 51.1094 7.40999C51.1094 7.78999 50.9614 8.09874 50.6654 8.38374C50.5361 8.51618 50.3791 8.62067 50.2048 8.69028C50.0304 8.75989 49.8427 8.79302 49.654 8.78749C49.2347 8.78749 48.9634 8.66874 48.544 8.26499C48.1 7.88499 47.7794 7.67124 47.3354 7.55249C46.2007 7.19624 44.9427 7.57624 44.2274 8.47874C43.8055 8.99959 43.596 9.65095 43.6382 10.3102C43.6804 10.9694 43.9714 11.5911 44.4565 12.0581C44.9416 12.5252 45.5872 12.8054 46.2719 12.846C46.9566 12.8866 47.6331 12.6849 48.174 12.2787C48.3467 12.16 48.4207 12.065 48.7167 11.7562C48.84 11.6375 49.0867 11.495 49.284 11.4237C49.9747 11.2337 50.69 11.5187 51.0107 12.1362C51.134 12.3737 51.1587 12.54 51.1587 12.825C51.134 13.205 50.986 13.5137 50.7147 13.775C50.3751 14.059 50.1111 14.4174 49.9451 14.82C49.7791 15.2226 49.7159 15.6577 49.7607 16.0887C49.8055 16.5197 49.957 16.9341 50.2026 17.297C50.4482 17.66 50.7806 17.9609 51.172 18.1745C51.5634 18.3881 52.0023 18.5082 52.4519 18.5246C52.9014 18.5411 53.3485 18.4534 53.7556 18.2691C54.1627 18.0847 54.5179 17.809 54.7914 17.465C55.0649 17.1211 55.2487 16.719 55.3274 16.2925C55.3767 15.9837 55.352 15.5087 55.278 15.2237C55.13 14.6775 54.9327 14.3212 54.464 13.87C54.0447 13.4425 53.9707 13.3 53.872 12.9437C53.7487 12.35 54.094 11.7087 54.686 11.4475C55.0067 11.305 55.3027 11.2812 55.6234 11.3525C55.9441 11.4237 56.0921 11.5187 56.3881 11.8275C56.6806 12.1294 57.0404 12.3635 57.4405 12.5122C57.8406 12.661 58.2704 12.7204 58.6978 12.6861C59.1252 12.6518 59.5389 12.5247 59.9079 12.3143C60.2768 12.1038 60.5915 11.8156 60.8281 11.4712C61.1241 11.0675 61.2721 10.6162 61.2967 10.1175C61.3214 9.33374 61.0501 8.64499 60.4581 8.07499C60.189 7.81422 59.8671 7.60945 59.5125 7.47338C59.1578 7.33732 58.7779 7.27285 58.3963 7.28399C58.0147 7.29512 57.6395 7.38162 57.2941 7.53811C56.9486 7.6946 56.6402 7.91776 56.3881 8.19374L55.9934 8.52624C55.6727 8.71624 55.278 8.78749 54.9574 8.71624C54.4394 8.59749 54.094 8.28874 53.8967 7.81374C53.8227 7.64749 53.8227 7.59999 53.8227 7.33874C53.8227 7.10124 53.8227 7.05374 53.872 6.91124C53.9707 6.64999 54.094 6.50749 54.316 6.29374C54.9574 5.67624 55.2534 4.98749 55.2287 4.15624C55.212 3.77843 55.1132 3.40819 54.9389 3.06937C54.7645 2.73054 54.5183 2.43065 54.2162 2.189C53.9141 1.94736 53.5628 1.76933 53.1849 1.66637C52.807 1.56341 52.4108 1.53782 52.022 1.59124ZM52.9347 2.75499C53.428 2.92124 53.8474 3.32499 53.9954 3.82374C54.0694 4.08499 54.0694 4.46499 53.9954 4.72624C53.8939 5.03612 53.699 5.30996 53.4354 5.51294C53.1719 5.71593 52.8517 5.8389 52.5154 5.86624C52.2701 5.88473 52.0236 5.85026 51.794 5.76536C51.5643 5.68045 51.3572 5.54725 51.1878 5.37546C51.0184 5.20368 50.891 4.99764 50.8149 4.7724C50.7387 4.54716 50.7157 4.30839 50.7476 4.07351C50.7795 3.83864 50.8655 3.61358 50.9992 3.41477C51.133 3.21595 51.3112 3.0484 51.5207 2.92433C51.7303 2.80026 51.966 2.7228 52.2106 2.69761C52.4552 2.67243 52.7026 2.70014 52.9347 2.77874V2.75499ZM59.0027 8.50249C59.3383 8.60799 59.63 8.81418 59.835 9.09085C60.0401 9.36753 60.1477 9.70015 60.1422 10.04C60.1367 10.3799 60.0183 10.7091 59.8044 10.9794C59.5904 11.2498 59.2922 11.4471 58.9534 11.5425L58.4847 11.5662C58.2381 11.5662 58.1641 11.5662 57.9914 11.5187C57.6831 11.4206 57.4116 11.2372 57.2109 10.9915C57.0101 10.7457 56.8891 10.4484 56.8628 10.1368C56.8364 9.82518 56.9061 9.51299 57.0629 9.23923C57.2198 8.96547 57.4569 8.74226 57.7447 8.59749C58.0407 8.45499 58.2381 8.40749 58.5587 8.40749C58.7314 8.43124 58.8547 8.43124 59.0027 8.50249ZM46.9654 8.59749C47.4587 8.73999 47.8534 9.11999 48.026 9.61874C48.1 9.80874 48.1 9.85624 48.1 10.1175C48.1 10.3787 48.1 10.4262 48.0507 10.5925C47.804 11.2337 47.2367 11.6612 46.546 11.7087C46.2747 11.7087 46.028 11.6612 45.732 11.5187C45.4602 11.3852 45.2328 11.1808 45.0758 10.9289C44.9187 10.6769 44.8384 10.3875 44.844 10.0937C44.844 9.85624 44.844 9.80874 44.918 9.61874C45.1154 9.07249 45.5594 8.69249 46.1267 8.54999C46.3487 8.50249 46.7434 8.52624 46.9654 8.59749ZM53.0334 14.3212C53.5514 14.4875 53.9214 14.8437 54.094 15.3425C54.168 15.5325 54.168 15.58 54.168 15.8175C54.168 16.0787 54.168 16.15 54.1187 16.3162C54.017 16.6416 53.8097 16.9271 53.5273 17.1309C53.2448 17.3346 52.9021 17.446 52.5491 17.4487C52.1962 17.4513 51.8517 17.3451 51.566 17.1456C51.2803 16.9461 51.0684 16.6638 50.9614 16.34C50.912 16.1737 50.912 16.1025 50.912 15.8412C50.912 15.58 50.912 15.5325 50.986 15.3425C51.1014 15.0173 51.3215 14.736 51.6142 14.5396C51.907 14.3431 52.2573 14.2416 52.614 14.25C52.7867 14.2737 52.91 14.2737 53.0334 14.3212Z" fill="white"/>
<path d="M52.0713 3.23C51.874 3.30125 51.726 3.3725 51.578 3.53875C51.356 3.7525 51.282 3.96625 51.282 4.275C51.282 4.6075 51.4053 4.845 51.6273 5.0825C51.874 5.29625 52.1207 5.3675 52.4907 5.3675C52.688 5.3675 52.762 5.34375 52.8853 5.2725C53.132 5.1775 53.3293 4.9875 53.4527 4.75C53.5513 4.58375 53.5513 4.58375 53.5513 4.275C53.5513 3.99 53.5267 3.96625 53.4527 3.82375C53.354 3.58625 53.1567 3.39625 52.91 3.2775C52.7373 3.20625 52.7127 3.20625 52.466 3.1825C52.2687 3.1825 52.17 3.1825 52.0713 3.23ZM58.1393 8.95375C57.868 9.025 57.5967 9.2625 57.4733 9.47625C57.3007 9.80875 57.3007 10.26 57.498 10.5687C57.5967 10.735 57.8187 10.925 58.016 10.9962C58.164 11.0675 58.1887 11.0912 58.4847 11.0912C58.8053 11.0912 58.8053 11.0912 58.978 10.9962C59.2247 10.8775 59.3973 10.7112 59.5207 10.4737C59.6193 10.3075 59.6193 10.3075 59.6193 9.99875C59.6193 9.71375 59.5947 9.69 59.5207 9.5475C59.422 9.31 59.2247 9.12 58.978 9.00125C58.8053 8.93 58.7807 8.93 58.534 8.90625C58.3367 8.90625 58.238 8.90625 58.1393 8.95375ZM46.1513 9.04875C45.8553 9.14375 45.5593 9.38125 45.436 9.66625C45.362 9.80875 45.362 9.8325 45.362 10.1175C45.362 10.4025 45.362 10.4262 45.436 10.5687C45.5593 10.8537 45.8307 11.0912 46.1513 11.1862H46.7927C47.1133 11.0912 47.3847 10.8537 47.508 10.5687C47.582 10.4262 47.6067 10.4025 47.6067 10.1175C47.6067 9.8325 47.582 9.80875 47.508 9.66625C47.4093 9.42875 47.212 9.23875 46.9653 9.12C46.7927 9.04875 46.768 9.04875 46.5213 9.025L46.1513 9.04875ZM52.1947 14.7962C51.9973 14.8675 51.8493 14.9387 51.7013 15.0812C51.4793 15.3187 51.4053 15.5562 51.4053 15.9125C51.43 16.1262 51.43 16.15 51.504 16.3162C51.6273 16.5537 51.8247 16.7437 52.0713 16.8387C52.2193 16.91 52.244 16.91 52.54 16.91C52.836 16.91 52.8607 16.91 53.0087 16.8387C53.2553 16.7437 53.4527 16.5537 53.576 16.3162C53.65 16.15 53.6747 16.1262 53.6747 15.9125C53.6993 15.5562 53.6007 15.3425 53.354 15.0812C53.2553 14.9862 53.1813 14.915 53.0333 14.8437C52.8607 14.7725 52.836 14.7487 52.5893 14.7487C52.392 14.7487 52.2933 14.7487 52.1947 14.7962ZM71.7307 4.0375H71.6813C71.6567 4.01375 71.336 4.2275 71.2127 4.3225L69.4367 7.71875L68.82 8.90625L68.7707 8.85875C68.008 7.33002 67.2268 5.80992 66.4273 4.29875C66.2793 4.18 66.1313 4.085 65.9587 4.0375C65.49 3.91875 64.9967 4.15625 64.7993 4.56L64.7007 4.7025L64.7253 9.6425V14.5825L64.7993 14.725C64.898 14.915 65.0953 15.105 65.2927 15.2C65.416 15.2475 65.4653 15.2712 65.6873 15.2712C65.934 15.2712 65.9833 15.2475 66.1067 15.2C66.3287 15.105 66.4767 14.9387 66.6 14.725L66.674 14.5587L66.6987 11.8512L66.7233 9.1675L67.3647 10.4262C67.9567 11.6137 68.006 11.685 68.154 11.8275L68.4253 12.0175C68.524 12.065 68.5733 12.0887 68.82 12.0887C69.0913 12.0887 69.116 12.065 69.264 11.9937C69.5353 11.875 69.5847 11.78 70.078 10.8775L70.7193 9.595L70.9413 9.14375L70.966 11.8512L70.9907 14.5587L71.04 14.7012C71.1387 14.8912 71.336 15.0812 71.5333 15.1762C71.6813 15.2475 71.706 15.2475 71.9527 15.2475C72.1993 15.2712 72.2487 15.2475 72.372 15.2C72.5693 15.105 72.742 14.9387 72.8653 14.725L72.9393 14.5587L72.964 9.71375C72.964 5.415 72.964 4.86875 72.9147 4.75C72.8407 4.37 72.52 4.10875 72.15 4.0375C71.8787 3.99 71.7553 3.99 71.7307 4.0375ZM0.93734 4.06125C0.666007 4.15625 0.394674 4.4175 0.296007 4.67875C0.27134 4.7975 0.246674 5.10625 0.246674 9.66625L0.27134 14.535L0.320674 14.6537C0.49334 15.0812 0.86334 15.295 1.33201 15.2712C1.48001 15.2475 1.57867 15.2475 1.67734 15.2C1.87467 15.105 2.07201 14.915 2.14601 14.725L2.24467 14.5587V11.5662L2.26934 8.57375L3.20667 10.165L5.10601 13.3475C5.74734 14.3925 6.09267 14.9625 6.16667 15.0337C6.21601 15.0575 6.31467 15.1525 6.41334 15.1762C6.56134 15.2475 6.58601 15.2475 6.85734 15.2475C7.10401 15.2712 7.12867 15.2475 7.27667 15.1762C7.47401 15.0812 7.67134 14.8912 7.77001 14.7012L7.84401 14.5587V4.75L7.77001 4.6075C7.69601 4.44125 7.52334 4.25125 7.37534 4.18C6.78334 3.8475 5.99401 4.18 5.87067 4.82125L5.84601 7.8375V10.735L5.37734 9.9275L3.65067 7.05375C2.07201 4.4175 2.07201 4.4175 1.94867 4.29875L1.67734 4.1325C1.45534 4.0375 1.18401 4.01375 0.93734 4.085V4.06125ZM106.437 4.06125C106.165 4.10875 105.894 4.29875 105.771 4.56L105.697 4.72625V12.3025L105.746 12.54C106.017 13.7037 106.757 14.63 107.843 15.1525L108.139 15.2712H108.385C108.681 15.2475 108.829 15.2 109.002 15.0337C109.224 14.82 109.323 14.5112 109.273 14.2262C109.224 13.9175 109.076 13.7275 108.731 13.5375C108.265 13.3337 107.895 12.9693 107.695 12.5162C107.547 12.16 107.547 12.3262 107.547 8.43125L107.522 4.77375C107.423 4.29875 106.93 3.96625 106.437 4.06125ZM83.1267 4.10875C82.8553 4.18 82.6333 4.37 82.51 4.63125L82.4607 4.77375V8.455C82.4607 12.4212 82.4607 12.35 82.584 12.7775C82.88 13.8225 83.8173 14.7487 84.9027 15.105C85.322 15.2475 85.4947 15.2475 86.1853 15.2475L86.8267 15.2712L86.9747 15.1762C87.172 15.105 87.32 14.9387 87.4187 14.7487C87.468 14.6537 87.468 14.6062 87.468 14.3687C87.4927 14.1075 87.468 14.0837 87.4187 13.9887L87.246 13.7512C86.9993 13.5137 86.8513 13.4662 86.2593 13.4662C85.766 13.4662 85.5933 13.4425 85.322 13.3C84.952 13.1337 84.6807 12.8725 84.508 12.54C84.3353 12.2075 84.3353 12.2312 84.3353 10.5212V8.9775H85.0753L85.8153 8.95375L85.9387 8.90625C86.136 8.81125 86.3087 8.645 86.4073 8.455C86.4567 8.33625 86.4567 8.28875 86.4567 8.075C86.4567 7.8375 86.4567 7.81375 86.4073 7.695C86.3087 7.52875 86.1113 7.33875 85.914 7.24375L85.766 7.1725H84.3353V5.96125C84.3107 4.77375 84.3107 4.75 84.2613 4.63125C84.1873 4.44125 83.99 4.25125 83.7927 4.15625C83.62 4.06125 83.3487 4.0375 83.1267 4.085V4.10875ZM12.3827 7.05375C11.4947 7.14875 10.878 7.43375 10.286 8.0275C9.89134 8.4075 9.62001 8.835 9.44734 9.33375C9.27467 9.85625 9.25001 10.165 9.25001 11.3287C9.27467 12.3025 9.27467 12.3975 9.44734 12.8725C9.76801 13.8462 10.7053 14.7487 11.7413 15.0812C12.58 15.3662 13.542 15.3425 14.3807 15.01C15.022 14.7487 15.8113 14.1312 16.0333 13.68C16.2553 13.2287 16.058 12.6825 15.614 12.4687C15.1947 12.2787 14.7753 12.35 14.4547 12.6587C14.0107 13.11 13.838 13.2525 13.4433 13.3712C13.246 13.4187 12.6787 13.4187 12.4567 13.3712C12.1569 13.2797 11.8864 13.116 11.6706 12.8958C11.4548 12.6755 11.3009 12.4059 11.2233 12.1125L13.2953 12.0887L15.4907 12.065C15.7867 11.9937 16.0333 11.8275 16.1567 11.5425L16.2307 11.4L16.2553 10.7587C16.2307 10.2125 16.2307 10.0937 16.1813 9.85625C16.0827 9.33375 15.8853 8.8825 15.614 8.455C15.4413 8.2175 14.948 7.7425 14.7013 7.57625C14.3313 7.33875 13.8873 7.1725 13.4433 7.10125C13.246 7.05375 12.5553 7.03 12.3827 7.05375ZM13.2707 8.95375C13.764 9.12 14.134 9.5475 14.2573 10.0937L14.3067 10.2362H11.1987L11.248 10.0937C11.396 9.4525 11.8647 9.00125 12.4813 8.90625C12.6787 8.85875 13.0487 8.90625 13.2707 8.95375ZM25.678 7.0775C25.4067 7.14875 25.2093 7.33875 25.086 7.57625L25.012 7.71875V12.1837L25.0613 12.445C25.2093 13.1337 25.4807 13.6325 25.974 14.155C26.714 14.8912 27.602 15.2712 28.6873 15.2712C29.23 15.2712 29.6247 15.2 30.0933 15.0337C30.8827 14.725 31.598 14.0837 31.9927 13.3475C32.2393 12.92 32.338 12.54 32.3873 12.0175V7.81375C32.338 7.505 32.116 7.24375 31.82 7.10125C31.6967 7.05375 31.6473 7.03 31.45 7.03C31.1293 7.05375 30.9813 7.10125 30.7593 7.29125C30.6113 7.4575 30.5127 7.6 30.488 7.81375L30.4633 9.95125L30.4387 12.1125C30.34 12.445 30.192 12.6825 29.9453 12.92C29.7233 13.1337 29.526 13.2525 29.2547 13.3475C29.0573 13.395 29.008 13.395 28.712 13.395C28.3173 13.395 28.194 13.3712 27.8733 13.2287C27.5773 13.0862 27.2567 12.7775 27.1087 12.4925C26.9113 12.1125 26.936 12.255 26.9113 9.85625V7.695L26.8373 7.57625C26.7387 7.3625 26.5907 7.24375 26.3687 7.125C26.2207 7.05375 26.1713 7.05375 25.9987 7.03C25.8507 7.03 25.752 7.03 25.678 7.0775ZM74.592 7.0775C74.3207 7.14875 74.1233 7.33875 74 7.6L73.9507 7.695V9.95125L73.9753 12.4212C74.148 13.1575 74.444 13.68 75.0113 14.2262C75.776 14.9625 76.5653 15.2712 77.626 15.2712C78.1021 15.2857 78.5761 15.2044 79.0178 15.0327C79.4595 14.8609 79.8592 14.6025 80.1913 14.2737C80.7587 13.7512 81.104 13.1812 81.252 12.4925L81.326 12.2312V7.67125L81.2273 7.52875C81.1287 7.3625 80.956 7.19625 80.7587 7.10125C80.6353 7.05375 80.586 7.03 80.3887 7.03C80.1667 7.03 80.1173 7.05375 79.994 7.10125C79.7967 7.19625 79.5747 7.41 79.476 7.57625L79.4267 7.71875L79.402 9.88C79.3773 12.255 79.402 12.1125 79.2293 12.445C79.1307 12.6587 78.958 12.8725 78.7607 13.015C78.4453 13.2742 78.0403 13.4099 77.626 13.395C77.3053 13.395 77.256 13.395 77.0833 13.3475C76.516 13.1575 76.1213 12.7775 75.924 12.2312L75.8747 12.0412L75.85 9.88C75.85 7.90875 75.8253 7.71875 75.8007 7.62375C75.702 7.41 75.5047 7.19625 75.2333 7.10125C75.0853 7.03 74.7647 7.00625 74.592 7.0775ZM89.17 7.05375C88.8987 7.125 88.6273 7.3625 88.5287 7.62375L88.4793 7.76625V9.9275C88.4793 12.3025 88.4547 12.255 88.6273 12.7775C88.7013 13.0625 88.9727 13.5612 89.17 13.8225C89.4907 14.2262 89.9593 14.63 90.428 14.8675C90.65 14.9862 91.0693 15.1287 91.3407 15.2C91.7107 15.2712 92.3767 15.295 92.7467 15.2475C93.536 15.1287 94.1527 14.82 94.7447 14.2737C95.386 13.68 95.756 12.9675 95.8547 12.1362V7.7425C95.8114 7.55038 95.7057 7.37651 95.553 7.24604C95.4003 7.11557 95.2084 7.03527 95.0051 7.01675C94.8019 6.99824 94.5978 7.04247 94.4223 7.14306C94.2469 7.24364 94.1093 7.39535 94.0293 7.57625L93.9553 7.695V9.85625C93.9307 12.255 93.9553 12.0887 93.758 12.4925C93.61 12.7775 93.2893 13.0862 92.9933 13.2287C92.6973 13.3712 92.5493 13.395 92.1547 13.395C91.8587 13.395 91.8093 13.395 91.6367 13.3475C91.3407 13.2525 91.1187 13.1337 90.9213 12.92C90.6993 12.7062 90.5513 12.4925 90.4527 12.2075L90.4033 11.9937L90.3787 9.8325C90.3787 7.71875 90.3787 7.67125 90.3047 7.57625C90.2553 7.43375 90.058 7.24375 89.91 7.14875C89.7127 7.03 89.4167 7.00625 89.17 7.05375ZM17.686 7.10125C17.4393 7.19625 17.2173 7.38625 17.1187 7.62375C17.0693 7.71875 17.0693 7.81375 17.0693 7.98C17.0693 8.265 17.094 8.36 17.39 8.74L19.24 11.0675L19.314 11.1625L18.9687 11.6137L17.908 12.9437L17.1187 13.9887C16.9707 14.3212 17.0693 14.7962 17.3653 15.0575L17.612 15.2C17.7353 15.2475 17.7847 15.2475 18.0067 15.2475C18.2533 15.2475 18.278 15.2475 18.426 15.2C18.5247 15.1525 18.6233 15.0812 18.6973 14.9862L19.684 13.775C20.3747 12.8962 20.5473 12.7062 20.572 12.73L21.4107 13.7987C22.3973 15.0575 22.422 15.0812 22.644 15.1762C22.792 15.2475 22.8167 15.2475 23.0633 15.2475C23.31 15.2475 23.3347 15.2475 23.4827 15.1762C23.68 15.0812 23.8527 14.915 23.9513 14.725C24.0253 14.5587 24.05 14.25 24.0007 14.0837C23.9267 13.9175 23.9267 13.8937 23.4827 13.3237L22.6687 12.3262L22.0027 11.4712L21.756 11.1625L22.1753 10.6162C22.5013 10.1945 22.8302 9.77494 23.162 9.3575L23.6307 8.7875C23.976 8.36 24.0253 8.265 24.0253 7.95625C24.0253 7.76625 24.0007 7.71875 23.9513 7.57625C23.8527 7.41 23.68 7.24375 23.4827 7.125C23.3593 7.0775 23.3347 7.05375 23.0633 7.05375C22.8167 7.05375 22.792 7.0775 22.644 7.14875C22.4467 7.22 22.348 7.33875 22.052 7.71875L20.5473 9.595C20.5227 9.61875 20.202 9.19125 19.0673 7.7425C18.6973 7.29125 18.6233 7.22 18.426 7.14875C18.2287 7.05375 17.908 7.03 17.686 7.10125ZM35.594 7.0775C35.234 7.12664 34.8892 7.2496 34.5828 7.43808C34.2764 7.62655 34.0156 7.87614 33.818 8.17C33.3493 8.85875 33.2753 9.8325 33.6453 10.5925C33.966 11.21 34.6073 11.7087 35.298 11.8987C35.4707 11.9462 35.5693 11.9462 36.6793 11.97C37.962 11.9937 37.962 11.9937 38.1593 12.1125C38.554 12.3737 38.5787 12.9437 38.2087 13.2525C38.0113 13.4187 38.0113 13.4187 36.704 13.4187L35.446 13.395L35.224 13.2762C34.78 12.9437 34.5087 12.8725 34.0893 13.015C33.9167 13.0862 33.6947 13.3 33.596 13.4662C33.5467 13.585 33.522 13.6325 33.522 13.87C33.522 14.2025 33.5713 14.2975 33.8427 14.5587C34.1387 14.8437 34.4593 15.0337 34.854 15.1525C35.224 15.2712 35.372 15.2712 36.8273 15.2712C38.1347 15.2475 38.2087 15.2475 38.3813 15.2C39.0744 15.0167 39.6637 14.5762 40.0197 13.9751C40.3758 13.374 40.4697 12.6614 40.2807 11.9937C40.108 11.2337 39.368 10.4975 38.554 10.26C38.2333 10.165 38.184 10.165 36.9753 10.1412L35.7667 10.1175L35.668 10.07C35.446 9.9275 35.3227 9.76125 35.3227 9.5C35.3473 9.3575 35.3473 9.31 35.4213 9.215C35.4953 9.09625 35.668 8.95375 35.7913 8.93L36.9507 8.90625C38.1593 8.90625 38.0853 8.90625 38.3073 9.09625C38.3567 9.14375 38.48 9.23875 38.5787 9.2625C38.7267 9.33375 38.7513 9.33375 38.9733 9.33375C39.1953 9.3575 39.22 9.33375 39.368 9.2625C40.0093 8.9775 40.1327 8.24125 39.6147 7.76625C39.2693 7.43375 38.8993 7.22 38.406 7.10125L37 7.05375L35.594 7.0775ZM99.9493 7.10125C99.2093 7.22 98.568 7.5525 98.0007 8.09875C97.4333 8.645 97.1127 9.2625 96.9647 9.975C96.9153 10.2837 96.8907 11.495 96.94 11.9937C97.014 12.8962 97.3347 13.5612 97.976 14.2025C98.3218 14.5646 98.7468 14.8482 99.2203 15.033C99.6938 15.2178 100.204 15.2992 100.714 15.2712C101.355 15.2475 101.824 15.1287 102.317 14.8912L102.49 14.7962L102.539 14.8437C102.761 15.105 102.835 15.1762 103.057 15.2475C103.279 15.295 103.575 15.2712 103.748 15.2C103.945 15.105 104.143 14.915 104.241 14.7487L104.291 14.6062V12.3737C104.291 9.9275 104.315 9.95125 104.143 9.52375C103.864 8.69753 103.282 7.99775 102.505 7.556C101.728 7.11424 100.811 6.96097 99.9247 7.125L99.9493 7.10125ZM101.059 8.95375C101.553 9.0725 101.997 9.42875 102.243 9.88C102.391 10.1887 102.391 10.2837 102.391 11.2575L102.367 12.0887L102.317 12.2787C102.194 12.54 102.071 12.73 101.873 12.92C101.651 13.1337 101.454 13.2525 101.207 13.3475C100.961 13.4187 100.492 13.4425 100.221 13.395C99.7027 13.2762 99.234 12.8962 99.012 12.445C98.864 12.16 98.864 12.0887 98.8393 11.2812C98.8393 10.4737 98.8393 10.3075 98.938 10.0462C99.1107 9.52375 99.6533 9.0725 100.196 8.93C100.393 8.8825 100.837 8.90625 101.059 8.95375Z" fill="white"/>
</svg>
