<svg width="257" height="257" viewBox="0 0 257 257" fill="none" xmlns="http://www.w3.org/2000/svg">
<circle cx="128.508" cy="128.989" r="128" fill="url(#paint0_linear)"/>
<circle cx="126.895" cy="127.375" r="120.268" fill="url(#paint1_linear)"/>
<circle cx="126.895" cy="127.375" r="120.268" fill="url(#paint2_linear)"/>
<path fill-rule="evenodd" clip-rule="evenodd" d="M65.5203 47.0453C87.2506 73.6853 86.3844 76.8413 90.2435 82.2546C90.4493 82.5432 90.5982 82.7521 90.6869 82.8759C92.744 85.7479 94.4423 87.8829 95.732 89.5043C98.5951 93.1035 99.4448 94.1717 97.7364 95.1528C96.3584 95.9439 94.9368 96.2048 93.5184 96.2048C91.914 96.2048 90.1064 95.4244 88.7902 94.1633C87.8599 93.2722 81.4943 83.9337 72.8262 70.3486C66.1939 59.9537 60.6435 51.3306 60.4921 51.1862C60.142 50.8523 60.148 50.8636 72.15 72.5547C79.6861 86.1752 84.8412 96.2405 84.8412 96.8844C84.8412 98.1942 84.4873 98.8828 82.8876 100.685C80.2209 103.691 79.0287 107.067 78.1682 114.055C77.2034 121.888 74.4907 127.422 66.9727 136.892C62.5719 142.436 61.8519 143.452 60.7414 145.686C59.3428 148.5 58.9581 150.076 58.8023 153.629C58.6375 157.386 58.9584 159.813 60.0947 163.404C61.0895 166.549 62.1278 168.626 64.7823 172.779C67.0732 176.362 68.3922 179.025 68.3922 180.067C68.3922 180.896 68.5489 180.897 72.0988 180.088C80.594 178.15 87.492 174.743 91.3716 170.566C93.7726 167.981 94.3364 166.553 94.3546 163.011C94.3667 160.694 94.2859 160.209 93.6659 158.876C92.6565 156.706 90.8189 154.902 86.7689 152.106C81.4621 148.441 79.1955 145.491 78.5694 141.434C78.0559 138.106 78.6517 135.757 81.5874 129.542C84.626 123.109 85.379 120.368 85.8884 113.883C86.2173 109.694 86.673 108.042 87.8646 106.716C89.1075 105.334 90.2263 104.865 93.3019 104.44C98.3162 103.749 101.509 102.438 104.134 99.9953C106.41 97.8762 107.363 95.8342 107.509 92.7603L107.62 90.4303L106.348 88.932C101.74 83.5057 62.4346 42.7797 62.1511 42.7797C62.0905 42.7797 63.6067 44.6993 65.5203 47.0453ZM70.9787 157.88C72.0205 156.016 71.467 153.621 69.7243 152.45C68.0779 151.345 65.5203 151.866 65.5203 153.307C65.5203 153.746 65.7609 154.066 66.3036 154.349C67.2171 154.823 67.2834 155.357 66.5646 156.448C65.8367 157.554 65.8954 158.525 66.7304 159.185C68.0761 160.25 69.981 159.664 70.9787 157.88ZM102.334 56.259C100.279 55.937 100.192 55.8992 101.159 55.749C103.013 55.461 107.39 55.8535 110.407 56.578C117.449 58.2687 123.857 62.5999 130.696 70.2923L132.513 72.3358L135.113 71.9137C146.065 70.136 157.205 71.5488 166.524 75.8968C169.087 77.0931 173.129 79.4742 173.634 80.086C173.794 80.2811 174.09 81.5364 174.29 82.8759C174.982 87.51 174.636 91.0622 173.232 93.7153C172.469 95.159 172.427 95.6166 172.94 96.8522C173.349 97.8381 174.492 98.5678 175.624 98.5662C177.939 98.5631 180.431 94.7821 181.586 89.5211L182.045 87.4313L182.954 88.4711C187.938 94.1755 191.854 101.955 192.526 107.492L192.701 108.936L191.864 107.623C190.421 105.365 188.973 103.827 187.117 102.587C183.773 100.352 180.236 99.5916 170.872 99.0931C162.413 98.6429 157.627 97.9131 152.88 96.3497C144.803 93.6901 140.733 90.1479 131.139 77.4345C126.878 71.7877 124.244 68.6634 121.624 66.1473C115.671 60.4304 109.822 57.4322 102.334 56.259ZM175.541 68.8671C175.754 65.0832 176.263 62.5873 177.284 60.3081C177.688 59.4059 178.067 58.6674 178.125 58.6674C178.184 58.6674 178.008 59.3334 177.734 60.1471C176.992 62.3593 176.87 65.3848 177.382 68.9049C178.03 73.3713 178.4 74.0158 183.073 78.8405C185.266 81.1035 187.816 83.9577 188.74 85.183L190.421 87.4111L188.74 85.8188C186.685 83.8716 181.958 80.074 180.914 79.5311C180.214 79.1671 180.109 79.1733 179.678 79.6075C179.28 80.0076 179.196 80.6086 179.141 83.4505C179.055 87.8797 178.457 90.7225 177.015 93.5651C176.234 95.1026 176.111 94.7745 176.817 93.0391C177.345 91.7434 177.398 91.1738 177.394 86.8861C177.386 78.2711 176.373 76.2 170.435 72.6521C168.931 71.7533 166.452 70.4571 164.927 69.7714C163.403 69.0858 162.191 68.4886 162.235 68.444C162.403 68.2749 168.195 69.9822 170.525 70.8878C173.993 72.235 174.564 72.4096 174.986 72.247C175.268 72.1381 175.404 71.3078 175.541 68.8671ZM100.131 62.2532C99.5724 68.9044 102.154 77.8018 106.327 83.6049C109.562 88.1033 114.577 91.599 118.279 91.9366C120.703 92.1576 121.431 91.3911 120.335 89.7736C118.812 87.5276 116.94 84.0695 116.444 82.5889C116.136 81.6692 115.467 78.9523 114.958 76.5515C113.217 68.355 111.506 65.163 107.554 62.7386C106.113 61.855 103.038 60.6987 101.254 60.3701L100.304 60.1949L100.131 62.2532ZM170.48 126.794C150.978 118.863 144.109 111.979 144.109 100.363C144.109 98.6534 144.168 97.2548 144.239 97.2548C144.31 97.2548 145.064 97.8189 145.915 98.5085C149.87 101.712 154.298 103.081 166.558 104.887C173.771 105.951 177.831 106.809 181.576 108.064C193.479 112.051 200.844 120.143 202.6 131.165C203.11 134.367 202.811 140.372 201.984 143.538C201.331 146.038 199.337 150.544 198.809 150.717C198.662 150.765 198.518 150.197 198.481 149.425C198.28 145.287 196.21 141.258 192.733 138.239C188.779 134.807 183.467 132.076 170.48 126.794ZM155.847 125.921C156.121 126.745 156.545 128.62 156.788 130.089C158.351 139.479 153.471 147.066 143.979 150.005C142.974 150.316 139.015 151.099 135.182 151.743C127.423 153.048 123.96 153.973 120.48 155.665C118.013 156.866 115.026 158.664 115.204 158.842C115.261 158.9 115.824 158.765 116.455 158.541C120.842 156.985 125.725 156.179 133.143 155.789C136.087 155.635 139.436 155.389 140.585 155.243C147.194 154.402 151.774 152.374 155.337 148.712C157.319 146.674 158.5 144.776 159.453 142.099C160.056 140.4 160.138 139.77 160.142 136.761C160.148 133.696 160.074 133.135 159.42 131.249C158.564 128.777 157.553 126.922 156.274 125.471L155.349 124.423L155.847 125.921ZM165.729 146.126C163.137 140.499 162.543 135.068 163.962 130.002C164.114 129.46 164.358 129.017 164.506 129.017C164.652 129.017 165.263 129.351 165.864 129.759C167.057 130.571 169.452 131.938 175.832 135.452C183.794 139.836 188.333 143.231 191.42 147.11C194.123 150.506 195.796 154.375 196.6 159.093C197.057 161.765 196.79 168.195 196.111 170.886C193.97 179.37 188.995 186.035 181.9 189.924C180.861 190.493 179.927 190.961 179.826 190.963C179.725 190.965 180.104 189.993 180.668 188.801C183.054 183.761 183.326 178.858 181.522 173.402C180.417 170.061 178.164 165.984 173.615 159.093C168.326 151.083 167.029 148.95 165.729 146.126ZM116.922 164.58C108.72 165.925 99.7149 170.309 92.4779 176.482L90.3233 178.319L92.2168 178.618C102.098 180.176 104.759 181.558 111.613 188.69C115.557 192.793 116.889 193.706 120.161 194.55C124.966 195.789 129.702 193.512 131.327 189.183C132.053 187.248 131.956 184.045 131.123 182.436C129.142 178.606 123.371 177.368 120.58 180.173C118.256 182.51 118.933 186.031 121.824 186.636C122.486 186.776 122.467 186.746 121.655 186.375C120.39 185.797 119.84 184.996 119.833 183.721C119.817 180.732 123.204 179.053 126.355 180.489C128.662 181.541 129.578 182.915 129.578 185.323C129.578 189.032 126.453 191.827 122.816 191.37C120.872 191.126 118.494 189.87 117.219 188.414C114.012 184.751 115.261 178.969 119.74 176.751C123.15 175.062 127.682 175.478 131.197 177.803C135.235 180.474 136.952 182.915 140.43 190.928C141.563 193.537 143.02 196.474 143.668 197.454C146.963 202.436 150.91 204.879 155.665 204.879C158.287 204.879 160.26 204.395 162.742 203.144C164.586 202.213 167.201 200.445 167.012 200.255C166.959 200.202 166.194 200.442 165.312 200.789C160.12 202.835 154.843 202.694 151.778 200.428C149.848 199.001 148.291 196.159 147.491 192.605C147.352 191.99 146.896 189.273 146.475 186.567C145.409 179.709 144.386 176.626 142 173.089C139.559 169.469 134.866 166.432 129.619 165.075C126.345 164.229 120.457 163.999 116.922 164.58ZM105.434 111.555C106.142 108.913 108.431 106.393 110.785 105.662C112.282 105.198 115.376 105.495 116.83 106.242C119.65 107.69 121.696 110.987 121.252 113.368C120.711 116.27 116.05 118.593 110.689 118.631C107.951 118.65 106.94 118.278 105.894 116.868C105.247 115.995 105.002 113.168 105.434 111.555ZM116.111 107.276C117.516 108.144 117.878 109.426 117.052 110.612C116.482 111.429 114.719 112.206 113.431 112.206C111.495 112.206 109.384 110.818 109.384 109.546C109.384 106.992 113.433 105.624 116.111 107.276Z" fill="#FF007A"/>
<defs>
<linearGradient id="paint0_linear" x1="237.482" y1="209.76" x2="32.6953" y2="44.438" gradientUnits="userSpaceOnUse">
<stop stop-color="#FDD1E5"/>
<stop offset="1" stop-color="white"/>
</linearGradient>
<linearGradient id="paint1_linear" x1="51.894" y1="35.9053" x2="212.95" y2="208.694" gradientUnits="userSpaceOnUse">
<stop stop-color="#FDF7FA"/>
<stop offset="1" stop-color="#FEE6F1"/>
</linearGradient>
<linearGradient id="paint2_linear" x1="51.894" y1="35.9053" x2="212.95" y2="208.694" gradientUnits="userSpaceOnUse">
<stop stop-color="#FDF7FA"/>
<stop offset="1" stop-color="#FEE6F1"/>
</linearGradient>
</defs>
</svg>
