<svg width="257" height="257" viewBox="0 0 257 257" fill="none" xmlns="http://www.w3.org/2000/svg">
<circle cx="128.693" cy="128.989" r="128" fill="url(#paint0_linear)"/>
<path d="M128.64 49.2101C115.289 49.2101 112.449 56.1227 108.811 65.8188L89.6394 114.317H68.4828V114.32C68.4023 114.318 68.3214 114.317 68.2404 114.317C63.6592 114.317 59.9455 118.031 59.9455 122.612C59.9455 127.193 63.6592 130.907 68.2404 130.907C68.3214 130.907 68.4023 130.905 68.4828 130.903V130.907H83.0812L61.0174 186.72C60.3348 187.936 59.9455 189.339 59.9455 190.833C59.9455 195.48 63.7136 199.248 68.3617 199.248C72.2822 199.248 75.5766 196.568 76.512 192.94L101.035 130.907H120.341C124.922 130.907 128.635 127.193 128.635 122.612C128.635 118.031 124.922 114.317 120.341 114.317H107.593L125.652 68.6341L125.605 68.6157C126.527 66.2264 127.533 65.875 128.64 65.875C129.747 65.875 130.752 66.2264 131.674 68.6157L131.628 68.6341L180.761 192.94C181.696 196.568 184.99 199.248 188.91 199.248C193.558 199.248 197.325 195.48 197.325 190.833C197.325 189.339 196.936 187.936 196.254 186.72L148.466 65.8188C144.829 56.1227 141.99 49.2101 128.64 49.2101Z" fill="white"/>
<defs>
<linearGradient id="paint0_linear" x1="262.353" y1="0.988738" x2="0.693329" y2="256.989" gradientUnits="userSpaceOnUse">
<stop stop-color="#B3539F"/>
<stop offset="1" stop-color="#30B9C6"/>
</linearGradient>
</defs>
</svg>
