<svg width="14" height="14" viewBox="0 0 14 14" fill="none" xmlns="http://www.w3.org/2000/svg">
<path d="M9.52108 2.85954C2.34141 2.85954 3.26394 7.80642 4.74801 10.0392C4.74801 9.11667 5.35768 11.1944 4.74801 8.4348C4.13834 5.67524 7.67603 5.25275 9.52108 5.38645V6.48196C9.52108 6.91292 10.0299 7.142 10.3525 6.85631L12.9463 4.55972C13.1719 4.35997 13.1709 4.00751 12.9441 3.80908L10.3503 1.53953C10.027 1.25665 9.52108 1.48624 9.52108 1.91582V2.85954Z" fill="#54AA8B"/>
<path d="M11.4539 8.41516V10.4642C11.4539 11.5688 10.5585 12.4642 9.45391 12.4642H2.75281C1.64824 12.4642 0.752808 11.5688 0.752808 10.4642V3.76314C0.752808 2.65857 1.64824 1.76314 2.75281 1.76314H4.89828" stroke="#54AA8B" stroke-width="1.5" stroke-linecap="round" stroke-linejoin="round"/>
</svg>
